<?xml version="1.0" encoding="UTF-8" standalone="no"?>
<!DOCTYPE svg PUBLIC "-//W3C//DTD SVG 1.1//EN" "http://www.w3.org/Graphics/SVG/1.1/DTD/svg11.dtd">
<svg width="720.00" height="720.00" viewBox="0.00 0.00 3000.00 3000.00" xmlns="http://www.w3.org/2000/svg" xmlns:xlink="http://www.w3.org/1999/xlink">
<g stroke-linecap="round" transform="translate(0.00, -1.00)" id="Vector_Sketch">
<path d="M2074.08,1100.65 C2299.24,1150.58 2687.92,1384.41 2691.78,1456.64 C2695.46,1525.36 2385.95,1793.41 2117.61,1925.79 C2144.34,2136.37 2180.20,2663.14 2068.85,2715.56 C1958.69,2767.42 1666.62,2630.27 1353.15,2321.14 C1069.80,2372.60 680.69,2466.93 612.16,2376.51 C555.65,2301.95 837.03,1731.74 792.67,1679.79 C591.03,1406.50 442.44,1152.97 492.61,1041.89 C545.21,925.43 963.11,912.26 1209.45,949.88 C1453.39,661.05 1675.51,379.02 1784.47,399.21 C1890.24,418.81 2022.38,837.22 2074.08,1100.65 Z" fill="none" stroke="rgb(128, 172, 255)" stroke-width="221.05" stroke-opacity="1.00" stroke-linejoin="round"/>
</g>
</svg>
